<mxfile host="app.diagrams.net" agent="Mozilla/5.0 (Macintosh; Intel Mac OS X 10_15_7) AppleWebKit/537.36 (KHTML, like Gecko) Chrome/131.0.0.0 Safari/537.36" version="26.0.2">
  <diagram name="Page-1" id="8fe9thM-FXNuNx1j2HVO">
    <mxGraphModel dx="1634" dy="1527" grid="0" gridSize="10" guides="1" tooltips="1" connect="1" arrows="1" fold="1" page="0" pageScale="1" pageWidth="850" pageHeight="1100" math="0" shadow="0">
      <root>
        <mxCell id="0" />
        <mxCell id="1" parent="0" />
        <mxCell id="mVAhTfFo_Tym0qC6vXfd-40" value="" style="rounded=1;whiteSpace=wrap;html=1;" vertex="1" parent="1">
          <mxGeometry x="-102" y="6" width="852" height="365" as="geometry" />
        </mxCell>
        <mxCell id="mVAhTfFo_Tym0qC6vXfd-4" value="" style="shape=image;verticalLabelPosition=bottom;labelBackgroundColor=default;verticalAlign=top;aspect=fixed;imageAspect=0;image=https://files.svgcdn.io/logos/google-gemini.svg;clipPath=inset(28.5% 0% 21.5% 0%);" vertex="1" parent="1">
          <mxGeometry x="537" y="175.5" width="200" height="100" as="geometry" />
        </mxCell>
        <mxCell id="mVAhTfFo_Tym0qC6vXfd-22" style="edgeStyle=orthogonalEdgeStyle;rounded=0;orthogonalLoop=1;jettySize=auto;html=1;exitX=0.25;exitY=0;exitDx=0;exitDy=0;" edge="1" parent="1" source="mVAhTfFo_Tym0qC6vXfd-5" target="mVAhTfFo_Tym0qC6vXfd-17">
          <mxGeometry relative="1" as="geometry">
            <Array as="points">
              <mxPoint x="215" y="206" />
              <mxPoint x="188" y="206" />
              <mxPoint x="188" y="98" />
            </Array>
          </mxGeometry>
        </mxCell>
        <mxCell id="mVAhTfFo_Tym0qC6vXfd-30" value="2. Format and filter code" style="edgeLabel;html=1;align=center;verticalAlign=middle;resizable=0;points=[];" vertex="1" connectable="0" parent="mVAhTfFo_Tym0qC6vXfd-22">
          <mxGeometry x="0.1392" y="2" relative="1" as="geometry">
            <mxPoint x="16" y="28" as="offset" />
          </mxGeometry>
        </mxCell>
        <mxCell id="mVAhTfFo_Tym0qC6vXfd-32" style="edgeStyle=orthogonalEdgeStyle;rounded=0;orthogonalLoop=1;jettySize=auto;html=1;" edge="1" parent="1" source="mVAhTfFo_Tym0qC6vXfd-5" target="mVAhTfFo_Tym0qC6vXfd-4">
          <mxGeometry relative="1" as="geometry" />
        </mxCell>
        <mxCell id="mVAhTfFo_Tym0qC6vXfd-5" value="Application" style="shape=image;verticalLabelPosition=bottom;labelBackgroundColor=default;verticalAlign=top;aspect=fixed;imageAspect=0;image=https://seeklogo.com/images/G/gradio-logo-C1E1266F61-seeklogo.com.png;clipPath=inset(35.33% 2% 34.33% 3%);" vertex="1" parent="1">
          <mxGeometry x="162.59" y="192" width="209.83" height="67" as="geometry" />
        </mxCell>
        <mxCell id="mVAhTfFo_Tym0qC6vXfd-6" value="&lt;b&gt;&lt;font style=&quot;font-size: 14px;&quot;&gt;Local&lt;/font&gt;&lt;/b&gt;" style="text;html=1;align=center;verticalAlign=middle;whiteSpace=wrap;rounded=0;" vertex="1" parent="1">
          <mxGeometry x="145" y="15" width="60" height="30" as="geometry" />
        </mxCell>
        <mxCell id="mVAhTfFo_Tym0qC6vXfd-7" value="&lt;b&gt;&lt;font style=&quot;font-size: 14px;&quot;&gt;Cloud&lt;/font&gt;&lt;/b&gt;" style="text;html=1;align=center;verticalAlign=middle;whiteSpace=wrap;rounded=0;" vertex="1" parent="1">
          <mxGeometry x="572" y="15" width="60" height="30" as="geometry" />
        </mxCell>
        <mxCell id="mVAhTfFo_Tym0qC6vXfd-10" value="" style="endArrow=none;dashed=1;html=1;rounded=0;strokeWidth=2;" edge="1" parent="1">
          <mxGeometry width="50" height="50" relative="1" as="geometry">
            <mxPoint x="459" y="366" as="sourcePoint" />
            <mxPoint x="459" y="11" as="targetPoint" />
          </mxGeometry>
        </mxCell>
        <mxCell id="mVAhTfFo_Tym0qC6vXfd-11" value="&lt;b&gt;&lt;font style=&quot;font-size: 14px;&quot;&gt;Creator AI Tools&lt;/font&gt;&lt;/b&gt;" style="rounded=1;whiteSpace=wrap;html=1;" vertex="1" parent="1">
          <mxGeometry x="258" y="-37" width="132" height="33" as="geometry" />
        </mxCell>
        <mxCell id="mVAhTfFo_Tym0qC6vXfd-27" style="edgeStyle=orthogonalEdgeStyle;rounded=0;orthogonalLoop=1;jettySize=auto;html=1;entryX=0;entryY=0.25;entryDx=0;entryDy=0;" edge="1" parent="1" source="mVAhTfFo_Tym0qC6vXfd-15" target="mVAhTfFo_Tym0qC6vXfd-5">
          <mxGeometry relative="1" as="geometry" />
        </mxCell>
        <mxCell id="mVAhTfFo_Tym0qC6vXfd-28" value="1. Provide a&lt;div&gt;GitHub URL&lt;/div&gt;" style="edgeLabel;html=1;align=center;verticalAlign=middle;resizable=0;points=[];" vertex="1" connectable="0" parent="mVAhTfFo_Tym0qC6vXfd-27">
          <mxGeometry x="-0.4893" y="-2" relative="1" as="geometry">
            <mxPoint x="21" y="3" as="offset" />
          </mxGeometry>
        </mxCell>
        <mxCell id="mVAhTfFo_Tym0qC6vXfd-15" value="GitHub URL" style="shape=image;verticalLabelPosition=bottom;labelBackgroundColor=default;verticalAlign=top;aspect=fixed;imageAspect=0;image=https://logos-world.net/wp-content/uploads/2020/11/GitHub-Logo-700x394.png;clipPath=inset(0% 17.67% 0% 17%);" vertex="1" parent="1">
          <mxGeometry x="-63" y="130" width="66.11" height="57" as="geometry" />
        </mxCell>
        <mxCell id="mVAhTfFo_Tym0qC6vXfd-25" style="edgeStyle=orthogonalEdgeStyle;rounded=0;orthogonalLoop=1;jettySize=auto;html=1;entryX=0;entryY=0.75;entryDx=0;entryDy=0;" edge="1" parent="1" source="mVAhTfFo_Tym0qC6vXfd-16" target="mVAhTfFo_Tym0qC6vXfd-5">
          <mxGeometry relative="1" as="geometry" />
        </mxCell>
        <mxCell id="mVAhTfFo_Tym0qC6vXfd-29" value="1. Provide a&lt;div&gt;link to a&lt;/div&gt;&lt;div&gt;local repository&lt;/div&gt;" style="edgeLabel;html=1;align=center;verticalAlign=middle;resizable=0;points=[];" vertex="1" connectable="0" parent="mVAhTfFo_Tym0qC6vXfd-25">
          <mxGeometry x="-0.4557" y="-3" relative="1" as="geometry">
            <mxPoint x="20" y="4" as="offset" />
          </mxGeometry>
        </mxCell>
        <mxCell id="mVAhTfFo_Tym0qC6vXfd-16" value="Local repository" style="shape=image;verticalLabelPosition=bottom;labelBackgroundColor=default;verticalAlign=top;aspect=fixed;imageAspect=0;image=https://logos-world.net/wp-content/uploads/2020/11/GitHub-Logo-700x394.png;clipPath=inset(0% 17.67% 0% 17%);" vertex="1" parent="1">
          <mxGeometry x="-63" y="250" width="66.11" height="57" as="geometry" />
        </mxCell>
        <mxCell id="mVAhTfFo_Tym0qC6vXfd-20" style="edgeStyle=orthogonalEdgeStyle;rounded=0;orthogonalLoop=1;jettySize=auto;html=1;" edge="1" parent="1" source="mVAhTfFo_Tym0qC6vXfd-17">
          <mxGeometry relative="1" as="geometry">
            <mxPoint x="334" y="199" as="targetPoint" />
            <Array as="points">
              <mxPoint x="334" y="98" />
              <mxPoint x="334" y="192" />
            </Array>
          </mxGeometry>
        </mxCell>
        <mxCell id="mVAhTfFo_Tym0qC6vXfd-31" value="3. Parse code&lt;div&gt;to a LLM-friedly format&lt;/div&gt;" style="edgeLabel;html=1;align=center;verticalAlign=middle;resizable=0;points=[];" vertex="1" connectable="0" parent="mVAhTfFo_Tym0qC6vXfd-20">
          <mxGeometry x="-0.0206" y="-3" relative="1" as="geometry">
            <mxPoint x="27" y="15" as="offset" />
          </mxGeometry>
        </mxCell>
        <mxCell id="mVAhTfFo_Tym0qC6vXfd-17" value="" style="sketch=0;outlineConnect=0;fontColor=#232F3E;gradientColor=none;fillColor=#232F3D;strokeColor=none;dashed=0;verticalLabelPosition=bottom;verticalAlign=top;align=center;html=1;fontSize=12;fontStyle=0;aspect=fixed;pointerEvents=1;shape=mxgraph.aws4.source_code;" vertex="1" parent="1">
          <mxGeometry x="239" y="59" width="57" height="78" as="geometry" />
        </mxCell>
        <mxCell id="mVAhTfFo_Tym0qC6vXfd-36" value="" style="endArrow=none;dashed=1;html=1;rounded=0;strokeWidth=2;" edge="1" parent="1">
          <mxGeometry width="50" height="50" relative="1" as="geometry">
            <mxPoint x="155" y="228" as="sourcePoint" />
            <mxPoint x="-75" y="228" as="targetPoint" />
          </mxGeometry>
        </mxCell>
        <mxCell id="mVAhTfFo_Tym0qC6vXfd-37" value="&lt;b&gt;&lt;font&gt;1st workflow&lt;/font&gt;&lt;/b&gt;" style="text;html=1;align=center;verticalAlign=middle;whiteSpace=wrap;rounded=0;" vertex="1" parent="1">
          <mxGeometry x="-74.94" y="91" width="90" height="30" as="geometry" />
        </mxCell>
        <mxCell id="mVAhTfFo_Tym0qC6vXfd-38" value="&lt;b&gt;&lt;font&gt;2nd workflow&lt;/font&gt;&lt;/b&gt;" style="text;html=1;align=center;verticalAlign=middle;whiteSpace=wrap;rounded=0;" vertex="1" parent="1">
          <mxGeometry x="-74.94" y="338" width="90" height="30" as="geometry" />
        </mxCell>
      </root>
    </mxGraphModel>
  </diagram>
</mxfile>
